PathFileType	4	(x/y/z)	S04_P20_T07.trc
DataRate	CameraRate	NumFrames	NumMarkers	Units	OrigDataRate	OrigDataStartFrame	OrigNumFrames
240	240	4	51	mm	240	1	369
Frame#	Time	Sternum			R.Acromium			L.Acromium			Top.Head			R.ASIS			L.ASIS			R.PSIS			L.PSIS			R.Great.Tro			L.Great.Tro			R.Iliac.Crest			L.Iliac.Crest			V.Sacral			R.Thigh.Upper.Post			R.Thigh.Lower.Ant			R.Thigh.Lower.Post			R.Thigh.Upper.Ant			R.Knee.Lat			R.Knee.Med			R.Shank.Upper.Post			R.Shank.Lower.Ant			R.Shank.Lower.Post			R.Shank.Upper.Ant			R.Ankle.Lat			R.Ankle.Med			R.Heel.Upper			R.Heel.Med			R.Heel.Lat			R.Toe.Lat			R.Toe.Med			R.Toe.Tip			L.Thigh.Upper.Post			L.Thigh.Lower.Ant			L.Thigh.Lower.Post			L.Thigh.Upper.Ant			L.Knee.Lat			L.Knee.Med			L.Shank.Upper.Post			L.Shank.Lower.Ant			L.Shank.Lower.Post			L.Shank.Upper.Ant			L.Ankle.Lat			L.Ankle.Med			L.Heel.Upper			L.Heel.Med			L.Heel.Lat			L.Toe.Lat			L.Toe.Med			L.Toe.Tip			Cervical.Spine			Back			
		X1	Y1	Z1	X2	Y2	Z2	X3	Y3	Z3	X4	Y4	Z4	X5	Y5	Z5	X6	Y6	Z6	X7	Y7	Z7	X8	Y8	Z8	X9	Y9	Z9	X10	Y10	Z10	X11	Y11	Z11	X12	Y12	Z12	X13	Y13	Z13	X14	Y14	Z14	X15	Y15	Z15	X16	Y16	Z16	X17	Y17	Z17	X18	Y18	Z18	X19	Y19	Z19	X20	Y20	Z20	X21	Y21	Z21	X22	Y22	Z22	X23	Y23	Z23	X24	Y24	Z24	X25	Y25	Z25	X26	Y26	Z26	X27	Y27	Z27	X28	Y28	Z28	X29	Y29	Z29	X30	Y30	Z30	X31	Y31	Z31	X32	Y32	Z32	X33	Y33	Z33	X34	Y34	Z34	X35	Y35	Z35	X36	Y36	Z36	X37	Y37	Z37	X38	Y38	Z38	X39	Y39	Z39	X40	Y40	Z40	X41	Y41	Z41	X42	Y42	Z42	X43	Y43	Z43	X44	Y44	Z44	X45	Y45	Z45	X46	Y46	Z46	X47	Y47	Z47	X48	Y48	Z48	X49	Y49	Z49	X50	Y50	Z50	X51	Y51	Z51	

1	0	NaN	NaN	NaN	-1408.4	1505.2	459.77	-1468.6	1495.2	114.94	-1413.4	1831.3	266.26	NaN	NaN	NaN	NaN	NaN	NaN	-1590.6	1035.2	316.69	-1578.6	1037.5	234.86	-1480	918.08	477.89	-1476.8	929.89	95.807	-1453.4	1088.1	459.34	-1477.6	1097.6	123.66	-1605.5	994.25	275.88	-1527	669.2	462.95	-1460.7	572.75	426.7	-1545	580.75	449.62	-1432.4	678.48	446.66	NaN	NaN	NaN	-1557.9	506.57	307.07	-1655	299.91	431.21	NaN	NaN	NaN	-1672.3	233.47	414.59	NaN	NaN	NaN	-1683.7	118.47	393.84	-1658.9	128.03	307.13	-1750.9	88.634	339.34	-1740.2	56.245	311.13	-1749.6	57.862	374.23	-1581.1	45.461	430.51	-1539	42.77	312.96	-1478.3	56.392	363.15	-1410	691.62	108.54	-1296.9	631.7	108.69	-1367	613.19	122.62	NaN	NaN	NaN	-1294.4	542.61	126.41	-1280	533.58	253.37	-1326.5	347.96	131.17	-1235.5	284.91	125.68	-1298.5	275.22	138.12	-1263.8	355.81	118.33	-1205.7	128.52	144.07	-1199.2	143.09	236.22	-1266.9	74.151	196.31	-1250.6	54.965	229.47	-1254.6	49.076	168.51	-1081.3	98.016	120.58	-1049	121.76	231.12	-1001.7	149.55	180.35	-1489.5	1557.2	299.51	-1586.2	1305.9	290.46
2	0.0041667	NaN	NaN	NaN	-1404.2	1504.8	459.38	-1464.3	1494.5	114.51	-1409.1	1830.7	265.8	NaN	NaN	NaN	NaN	NaN	NaN	-1585.7	1034.4	316.27	-1573.7	1036.8	234.45	-1475.5	917.51	477.61	-1471.8	929.35	95.528	-1449.1	1087.6	459.1	-1473	1096.9	123.37	-1600.6	993.55	275.45	-1522.9	668.81	462.72	-1456.5	572.4	426.24	-1541.2	580.44	449.35	-1427.6	678.26	445.83	NaN	NaN	NaN	-1554.1	506.28	306.83	-1653.1	300.43	431.06	NaN	NaN	NaN	-1670.8	234.09	414.47	NaN	NaN	NaN	-1683.3	119.23	393.84	-1658.5	128.69	307.16	-1750.5	89.605	339.29	-1740	57.217	311.03	-1749.4	58.811	374.13	-1581.3	45.315	430.51	-1538.9	42.72	312.97	-1478	55.982	363.19	-1405.6	690.94	108.4	-1292.7	630.76	108.69	-1362.8	612.42	122.6	NaN	NaN	NaN	-1290.4	541.59	126.43	-1276.3	532.61	253.5	-1321.9	346.78	131.27	-1230.6	284.06	125.81	-1293.6	274.16	138.24	-1259.2	354.91	118.49	-1200	127.87	144.3	-1193.9	142.41	236.47	-1261.1	73.077	196.37	-1244.8	53.981	229.53	-1248.5	48.105	168.58	-1075.5	98.177	121.11	-1043.5	122.03	231.74	-996.32	150.27	181.08	-1485.1	1556.6	299.09	-1581.7	1305.3	290.18
3	0.0083333	NaN	NaN	NaN	-1399.8	1504.3	458.96	-1459.7	1493.8	114.06	-1404.6	1830.1	265.32	NaN	NaN	NaN	NaN	NaN	NaN	-1580.6	1033.7	315.82	-1568.7	1036.1	234	-1470.7	916.93	477.32	-1466.5	928.79	95.236	-1444.5	1087	458.83	-1468.1	1096.2	123.06	-1595.5	992.82	274.98	-1518.5	668.41	462.47	-1452.2	572.03	425.79	-1537.2	580.11	449.07	-1422.5	678.02	445	NaN	NaN	NaN	-1550.1	505.98	306.59	-1651	300.98	430.92	NaN	NaN	NaN	-1669.1	234.76	414.36	NaN	NaN	NaN	-1683	120.03	393.84	-1658	129.41	307.2	-1750.1	90.656	339.24	-1739.7	58.271	310.94	-1749.2	59.838	374.03	-1581.5	45.167	430.51	-1538.7	42.672	313	-1477.7	55.558	363.23	-1401	690.24	108.25	-1288.4	629.79	108.71	-1358.5	611.61	122.58	NaN	NaN	NaN	-1286.3	540.52	126.46	-1272.4	531.61	253.63	-1317.1	345.57	131.35	-1225.6	283.14	125.96	-1288.6	273.06	138.35	-1254.4	353.96	118.67	-1194.3	127.14	144.56	-1188.5	141.66	236.73	-1255.2	71.972	196.46	-1238.9	52.957	229.62	-1242.4	47.095	168.67	-1069.6	98.235	121.66	-1038.1	122.2	232.4	-990.92	150.86	181.85	-1480.5	1556	298.65	-1577	1304.6	289.87
4	0.0125	NaN	NaN	NaN	-1395.3	1503.9	458.51	-1455	1493.1	113.59	-1400	1829.4	264.81	NaN	NaN	NaN	NaN	NaN	NaN	-1575.4	1032.9	315.34	-1563.4	1035.4	233.52	-1465.8	916.34	477.01	-1461.1	928.19	94.932	-1439.7	1086.4	458.55	-1463.1	1095.4	122.72	-1590.3	992.08	274.48	-1514	667.98	462.22	-1447.6	571.65	425.34	-1533	579.76	448.78	-1417.3	677.75	444.21	NaN	NaN	NaN	-1545.8	505.66	306.36	-1648.8	301.57	430.78	NaN	NaN	NaN	-1667.4	235.48	414.25	NaN	NaN	NaN	-1682.5	120.87	393.85	-1657.5	130.18	307.26	-1749.6	91.792	339.2	-1739.4	59.413	310.85	-1749	60.95	373.94	-1581.6	45.02	430.5	-1538.5	42.627	313.02	-1477.4	55.121	363.27	-1396.2	689.5	108.1	-1283.8	628.78	108.76	-1353.9	610.78	122.56	NaN	NaN	NaN	-1281.9	539.42	126.5	-1268.4	530.57	253.76	-1312.3	344.34	131.43	-1220.6	282.16	126.14	-1283.5	271.92	138.46	-1249.5	352.95	118.87	-1188.7	126.34	144.83	-1183.2	140.84	237.03	-1249.4	70.849	196.57	-1233.1	51.903	229.72	-1236.4	46.055	168.78	-1063.7	98.167	122.26	-1032.7	122.22	233.08	-985.54	151.29	182.65	-1475.8	1555.3	298.18	-1572.1	1303.9	289.53
